<?xml version="1.0" encoding="utf-8"?>
<!-- Generator: Adobe Illustrator 21.1.0, SVG Export Plug-In . SVG Version: 6.00 Build 0)  -->
<svg version="1.1" id="Livello_1" xmlns="http://www.w3.org/2000/svg" xmlns:xlink="http://www.w3.org/1999/xlink" x="0px" y="0px"
	 viewBox="0 0 48 48" style="enable-background:new 0 0 48 48;" xml:space="preserve">
<style type="text/css">
	.st0{fill:#FCFCFC;}
</style>
<path class="st0" d="M24,0.2c-13.2,0-24,10.9-24,24.4c0,10.8,6.9,19.9,16.4,23.1c1.2,0.2,1.6-0.5,1.6-1.2c0-0.6,0-2.5,0-4.5
	c-6.7,1.5-8.1-2.9-8.1-2.9c-1.1-2.8-2.7-3.6-2.7-3.6C5.2,34,7.5,34,7.5,34c2.4,0.2,3.7,2.5,3.7,2.5c2.1,3.7,5.6,2.6,7,2
	c0.2-1.6,0.8-2.7,1.5-3.3c-5.3-0.6-10.9-2.7-10.9-12c0-2.7,0.9-4.8,2.5-6.5c-0.2-0.6-1.1-3.1,0.2-6.4c0,0,2-0.7,6.6,2.5
	c1.9-0.5,4-0.8,6-0.8c2,0,4.1,0.3,6,0.8c4.6-3.2,6.6-2.5,6.6-2.5c1.3,3.4,0.5,5.8,0.2,6.4c1.5,1.7,2.5,3.9,2.5,6.5
	c0,9.4-5.6,11.4-10.9,12c0.9,0.8,1.6,2.2,1.6,4.5c0,3.3,0,5.9,0,6.7c0,0.6,0.4,1.4,1.6,1.2C41.1,44.4,48,35.3,48,24.5
	C48,11.1,37.3,0.2,24,0.2z"/>
<path class="st0" d="M9.2,35.2c-0.1,0.1-0.2,0.2-0.4,0.1c-0.2-0.1-0.3-0.2-0.2-0.4c0.1-0.1,0.2-0.2,0.4-0.1
	C9.1,34.9,9.2,35,9.2,35.2z"/>
<path class="st0" d="M10.1,36.3c-0.1,0.1-0.3,0.1-0.5-0.1c-0.2-0.2-0.2-0.4-0.1-0.5c0.1-0.1,0.3-0.1,0.5,0.1
	C10.2,35.9,10.3,36.2,10.1,36.3z"/>
<path class="st0" d="M11.1,37.7c-0.1,0.1-0.4,0-0.5-0.2c-0.1-0.2-0.1-0.5,0-0.6c0.1-0.1,0.4,0,0.5,0.2
	C11.2,37.3,11.2,37.6,11.1,37.7z"/>
<path class="st0" d="M12.4,39c-0.1,0.1-0.4,0.1-0.6-0.1c-0.2-0.2-0.3-0.5-0.1-0.6c0.1-0.1,0.4-0.1,0.6,0.1
	C12.4,38.6,12.5,38.9,12.4,39z"/>
<path class="st0" d="M14.2,39.8c-0.1,0.2-0.3,0.3-0.6,0.2c-0.3-0.1-0.4-0.3-0.4-0.5c0.1-0.2,0.3-0.3,0.6-0.2
	C14,39.4,14.2,39.6,14.2,39.8z"/>
<path class="st0" d="M16.1,40c0,0.2-0.2,0.4-0.5,0.4c-0.3,0-0.5-0.2-0.5-0.4c0-0.2,0.2-0.4,0.5-0.4C15.9,39.6,16.1,39.8,16.1,40z"/>
<path class="st0" d="M17.9,39.6c0,0.2-0.2,0.4-0.4,0.5c-0.3,0.1-0.5-0.1-0.6-0.3c0-0.2,0.2-0.4,0.4-0.5
	C17.7,39.3,17.9,39.4,17.9,39.6z"/>
</svg>
