<?xml version="1.0" encoding="utf-8"?>
<!-- Generator: Adobe Illustrator 21.1.0, SVG Export Plug-In . SVG Version: 6.00 Build 0)  -->
<svg version="1.1" id="Livello_1" xmlns="http://www.w3.org/2000/svg" xmlns:xlink="http://www.w3.org/1999/xlink" x="0px" y="0px"
	 viewBox="0 0 50 50" style="enable-background:new 0 0 50 50;" xml:space="preserve">
<style type="text/css">
	.st0{fill:#FCFCFC;}
</style>
<path class="st0" d="M46.1,6.6c-0.8-0.6-1.9-0.7-3.1-0.2h0C41.7,6.8,6.7,21.8,5.3,22.4C5,22.5,2.8,23.4,3,25.3
	c0.2,1.7,2,2.4,2.2,2.5l8.9,3c0.6,2,2.8,9.2,3.2,10.8c0.3,1,0.8,2.2,1.6,2.5c0.8,0.3,1.5,0,2-0.4l5.4-5l8.8,6.8l0.2,0.1
	c0.6,0.3,1.2,0.4,1.7,0.4c0.4,0,0.8-0.1,1.2-0.2c1.3-0.5,1.8-1.8,1.9-1.9l6.6-34.1C47.2,7.9,46.7,7,46.1,6.6z M22,32l-3,8l-3-10
	l23-17L22,32z"/>
</svg>
