<?xml version="1.0" encoding="utf-8"?>
<!-- Generator: Adobe Illustrator 21.1.0, SVG Export Plug-In . SVG Version: 6.00 Build 0)  -->
<svg version="1.1" id="Livello_1" xmlns="http://www.w3.org/2000/svg" xmlns:xlink="http://www.w3.org/1999/xlink" x="0px" y="0px"
	 viewBox="0 0 24 24" style="enable-background:new 0 0 24 24;" xml:space="preserve">
<style type="text/css">
	.st0{fill:#FCFCFC;}
</style>
<path class="st0" d="M22,4c-0.8,0.5-2.3,1.1-3.3,1.3c0,0,0,0-0.1,0C17.8,4.5,16.7,4,15.5,4C13,4,11,6,11,8.5c0,0.1,0,0.4,0,0.5
	C7.6,9,5.1,7.2,3.3,5C3.1,5.5,3,6.3,3,7c0,1.4,1.1,2.8,2.8,3.6c-0.3,0.1-0.7,0.1-1,0.1c-0.6,0-1.2-0.2-1.8-0.6c0,0,0,0,0,0.1
	c0,2,2.1,3.3,3.9,3.7c-0.4,0.2-1.1,0.2-1.5,0.2C5.2,14.1,4.2,14,4,14c0.5,1.6,2.4,2.5,4.1,2.5C6.8,17.6,5.8,18,3,18H2
	c1.8,1.1,4.1,2,6.3,2C15.8,20,20,14.3,20,9c0-0.1,0-0.3,0-0.4c0,0,0,0,0-0.1V8.4c0-0.1,0-0.3,0-0.3c0.8-0.6,1.5-1.3,2-2.1
	c-0.7,0.3-1.5,0.5-2.3,0.6C20.5,6.1,21.7,4.9,22,4z"/>
</svg>
