<?xml version="1.0" encoding="utf-8"?>
<!-- Generator: Adobe Illustrator 21.1.0, SVG Export Plug-In . SVG Version: 6.00 Build 0)  -->
<svg version="1.1" id="Livello_1" xmlns="http://www.w3.org/2000/svg" xmlns:xlink="http://www.w3.org/1999/xlink" x="0px" y="0px"
	 viewBox="0 0 120 40" style="enable-background:new 0 0 120 40;" xml:space="preserve">
<style type="text/css">
	.st0{enable-background:new    ;}
	.st1{fill:#3251BF;}
</style>
<g>
	<g class="st0">
		<path class="st1" d="M10.5,12.9c0,0.9,0.6,1.6,1.7,2.1c1.1,0.5,2.5,1,4.2,1.4c1.6,0.4,3.3,0.9,4.9,1.5c1.6,0.6,3,1.7,4.2,3.1
			c1.1,1.5,1.7,3.3,1.7,5.5c0,3.3-1.2,5.9-3.7,7.6s-5.6,2.7-9.2,2.7c-6.6,0-11.1-2.6-13.5-7.7l7.2-4.1c0.9,2.8,3,4.2,6.3,4.2
			c3,0,4.4-0.9,4.4-2.8c0-0.9-0.6-1.6-1.7-2.1c-1.1-0.5-2.5-1-4.2-1.5c-1.6-0.4-3.3-1-4.9-1.6c-1.6-0.6-3-1.7-4.2-3.1
			C2.6,16.9,2,15.2,2,13.1c0-3.2,1.2-5.7,3.5-7.5s5.3-2.7,8.7-2.7c2.6,0,5,0.6,7.2,1.8c2.1,1.2,3.8,2.9,5.1,5.1l-7.1,3.9
			c-1-2.2-2.7-3.3-5.2-3.3c-1.1,0-2,0.2-2.7,0.7C10.9,11.4,10.5,12,10.5,12.9z"/>
		<path class="st1" d="M32.5,33.4V6.3c0-1.4,1.1-2.5,2.5-2.5h3.2c1.4,0,2.5,1.1,2.5,2.5v27.1c0,1.4-1.1,2.5-2.5,2.5H35
			C33.6,35.9,32.5,34.8,32.5,33.4z"/>
		<path class="st1" d="M66.5,5.6v4.2c0,1.3-0.9,2.4-2.2,2.5c-1.7,0.1-4.8-0.4-6.2,0.5c-2,1.3-1.4,4.6-1.4,7.7v12.9
			c0,1.4-1.1,2.5-2.5,2.5h-3.2c-1.4,0-2.5-1.1-2.5-2.5v-17c0,0-0.6-12.5,9.6-12.7l7.1,0C65,3.7,66.6,3.6,66.5,5.6z"/>
		<path class="st1" d="M71.3,33.7V5.9c0-1.2,1-2.2,2.2-2.2h3.9c1.2,0,2.2,1,2.2,2.2v27.8c0,1.2-1,2.2-2.2,2.2h-3.9
			C72.3,35.9,71.3,34.9,71.3,33.7z"/>
		<path class="st1" d="M114.7,31.9c-3.3,3.3-7.3,4.9-12.1,4.9c-4.8,0-8.8-1.6-12.1-4.9c-3.3-3.3-4.9-7.3-4.9-12.1s1.6-8.8,4.9-12.1
			c3.3-3.3,7.3-4.9,12.1-4.9c4.8,0,8.8,1.6,12.1,4.9c3.3,3.3,5,7.3,5,12.1S118,28.6,114.7,31.9z M96.3,26.2c1.7,1.7,3.7,2.5,6.2,2.5
			s4.6-0.8,6.2-2.5c1.7-1.7,2.5-3.8,2.5-6.4s-0.8-4.7-2.5-6.4c-1.7-1.7-3.8-2.5-6.2-2.5s-4.6,0.8-6.2,2.5c-1.7,1.7-2.5,3.8-2.5,6.4
			S94.7,24.5,96.3,26.2z"/>
	</g>
	<path class="st1" d="M8,25.8l-6.8,3.7c-0.3,0.2-0.5-0.4-0.7-0.7l0,0c-0.2-0.3-0.1-0.7,0.2-0.9l6.1-3.5c0.3-0.2,0.7-0.1,0.9,0.2l0,0
		C7.9,25.3,8.5,26.2,8,25.8z"/>
	<path class="st1" d="M26.2,10.6l-5.9,3.2c-0.3,0.2-0.7,0.1-0.9-0.3l-0.3-0.7c-0.2-0.3,0.2-0.3,0.5-0.4l5.9-3.2
		c0.3-0.2,0.7-0.1,0.9,0.3l0.1,0.2C26.7,10,26.6,10.4,26.2,10.6z"/>
	<path class="st1" d="M27,13.8"/>
	<path class="st1" d="M14.3,13.8"/>
</g>
</svg>
